<svg width="14" height="14" viewBox="0 0 14 14" fill="none" xmlns="http://www.w3.org/2000/svg">
<path d="M6.99301 0.333252C3.31301 0.333252 0.333008 3.31992 0.333008 6.99992C0.333008 10.6799 3.31301 13.6666 6.99301 13.6666C10.6797 13.6666 13.6663 10.6799 13.6663 6.99992C13.6663 3.31992 10.6797 0.333252 6.99301 0.333252ZM6.99967 12.3333C4.05301 12.3333 1.66634 9.94659 1.66634 6.99992C1.66634 4.05325 4.05301 1.66659 6.99967 1.66659C9.94634 1.66659 12.333 4.05325 12.333 6.99992C12.333 9.94659 9.94634 12.3333 6.99967 12.3333ZM6.85301 3.66659H6.81301C6.54634 3.66659 6.33301 3.87992 6.33301 4.14659V7.29325C6.33301 7.52659 6.45301 7.74659 6.65967 7.86659L9.42634 9.52659C9.65301 9.65992 9.94634 9.59325 10.0797 9.36659C10.2197 9.13992 10.1463 8.83992 9.91301 8.70659L7.33301 7.17325V4.14659C7.33301 3.87992 7.11967 3.66659 6.85301 3.66659Z" fill="#676767"/>
</svg>
