<svg width="16" height="16" viewBox="0 0 16 16" fill="none" xmlns="http://www.w3.org/2000/svg">
<path d="M15.3498 0.661755C14.8948 0.206755 14.1598 0.206755 13.7048 0.661755L7.99984 6.35509L2.29484 0.650088C1.83984 0.195088 1.10484 0.195088 0.649844 0.650088C0.194844 1.10509 0.194844 1.84009 0.649844 2.29509L6.35484 8.00009L0.649844 13.7051C0.194844 14.1601 0.194844 14.8951 0.649844 15.3501C1.10484 15.8051 1.83984 15.8051 2.29484 15.3501L7.99984 9.64509L13.7048 15.3501C14.1598 15.8051 14.8948 15.8051 15.3498 15.3501C15.8048 14.8951 15.8048 14.1601 15.3498 13.7051L9.64484 8.00009L15.3498 2.29509C15.7932 1.85176 15.7932 1.10509 15.3498 0.661755Z" fill="#787878"/>
</svg>
