<svg width="18" height="18" viewBox="0 0 18 18" fill="none" xmlns="http://www.w3.org/2000/svg">
<path d="M9.00033 0.666504C4.39199 0.666504 0.666992 4.3915 0.666992 8.99984C0.666992 13.6082 4.39199 17.3332 9.00033 17.3332C13.6087 17.3332 17.3337 13.6082 17.3337 8.99984C17.3337 4.3915 13.6087 0.666504 9.00033 0.666504ZM12.5837 12.5832C12.2587 12.9082 11.7337 12.9082 11.4087 12.5832L9.00033 10.1748L6.59199 12.5832C6.26699 12.9082 5.74199 12.9082 5.41699 12.5832C5.09199 12.2582 5.09199 11.7332 5.41699 11.4082L7.82533 8.99984L5.41699 6.5915C5.09199 6.2665 5.09199 5.7415 5.41699 5.4165C5.74199 5.0915 6.26699 5.0915 6.59199 5.4165L9.00033 7.82484L11.4087 5.4165C11.7337 5.0915 12.2587 5.0915 12.5837 5.4165C12.9087 5.7415 12.9087 6.2665 12.5837 6.5915L10.1753 8.99984L12.5837 11.4082C12.9003 11.7248 12.9003 12.2582 12.5837 12.5832Z" fill="#C4C4C4"/>
</svg>
