<svg width="10" height="10" viewBox="0 0 10 10" fill="none" xmlns="http://www.w3.org/2000/svg">
<path d="M9.275 7.9175L6.365 5L9.2825 2.0825C9.575 1.79 9.575 1.3175 9.2825 1.025C8.99 0.7325 8.5175 0.7325 8.225 1.025L4.7825 4.4675C4.49 4.76 4.49 5.2325 4.7825 5.525L8.225 8.9675C8.5175 9.26 8.99 9.26 9.2825 8.9675C9.5675 8.6825 9.5675 8.2025 9.275 7.9175ZM1.25 0.5C1.6625 0.5 2 0.8375 2 1.25V8.75C2 9.1625 1.6625 9.5 1.25 9.5C0.8375 9.5 0.5 9.1625 0.5 8.75V1.25C0.5 0.8375 0.8375 0.5 1.25 0.5Z" fill="#787878"/>
</svg>
