<svg width="10" height="10" viewBox="0 0 10 10" fill="none" xmlns="http://www.w3.org/2000/svg">
<path d="M0.717422 2.0825L3.63492 5L0.717422 7.9175C0.424922 8.21 0.424922 8.6825 0.717422 8.975C1.00992 9.2675 1.48242 9.2675 1.77492 8.975L5.21742 5.5325C5.50992 5.24 5.50992 4.7675 5.21742 4.475L1.77492 1.025C1.48242 0.7325 1.00992 0.7325 0.717422 1.025C0.432422 1.3175 0.432422 1.7975 0.717422 2.0825ZM8.74992 0.5C9.16242 0.5 9.49992 0.8375 9.49992 1.25V8.75C9.49992 9.1625 9.16242 9.5 8.74992 9.5C8.33742 9.5 7.99992 9.1625 7.99992 8.75V1.25C7.99992 0.8375 8.33742 0.5 8.74992 0.5Z" fill="#787878"/>
</svg>
