<svg width="22" height="27" viewBox="0 0 22 27" fill="none" xmlns="http://www.w3.org/2000/svg">
<path d="M11.0001 26.3335C12.4667 26.3335 13.6667 25.1335 13.6667 23.6668H8.3334C8.3334 25.1335 9.52007 26.3335 11.0001 26.3335ZM19.0001 18.3335V11.6668C19.0001 7.5735 16.8134 4.14683 13.0001 3.24016V2.3335C13.0001 1.22683 12.1067 0.333496 11.0001 0.333496C9.8934 0.333496 9.00007 1.22683 9.00007 2.3335V3.24016C5.1734 4.14683 3.00007 7.56016 3.00007 11.6668V18.3335L1.28007 20.0535C0.440069 20.8935 1.02674 22.3335 2.2134 22.3335H19.7734C20.9601 22.3335 21.5601 20.8935 20.7201 20.0535L19.0001 18.3335Z" fill="black"/>
</svg>
