<svg width="14" height="14" viewBox="0 0 14 14" fill="none" xmlns="http://www.w3.org/2000/svg">
<path d="M9.62498 8.50023H9.03248L8.82248 8.29772C9.72248 7.24772 10.1875 5.81523 9.93248 4.29273C9.57998 2.20773 7.83998 0.542725 5.73998 0.287725C2.56748 -0.102275 -0.102519 2.56772 0.287481 5.74022C0.542481 7.84022 2.20748 9.58022 4.29248 9.93272C5.81498 10.1877 7.24748 9.72272 8.29748 8.82273L8.49998 9.03273V9.62523L11.6875 12.8127C11.995 13.1202 12.4975 13.1202 12.805 12.8127C13.1125 12.5052 13.1125 12.0027 12.805 11.6952L9.62498 8.50023ZM5.12498 8.50023C3.25748 8.50023 1.74998 6.99272 1.74998 5.12523C1.74998 3.25773 3.25748 1.75023 5.12498 1.75023C6.99248 1.75023 8.49998 3.25773 8.49998 5.12523C8.49998 6.99272 6.99248 8.50023 5.12498 8.50023Z" fill="#787878"/>
</svg>
